<svg xmlns="http://www.w3.org/2000/svg" xmlns:se="http://svg-edit.googlecode.com" xmlns:xlink="http://www.w3.org/1999/xlink" xmlns:dc="http://purl.org/dc/elements/1.1/" xmlns:cc="http://creativecommons.org/ns#" xmlns:rdf="http://www.w3.org/1999/02/22-rdf-syntax-ns#" xmlns:inkscape="http://www.inkscape.org/namespaces/inkscape" width="207.12087835503746" height="90.83515987734802" style="">                                    <title>my vector image</title>                                    <!-- Created with Vector Paint - http://www.vectorpaint.yaks.com/ https://chrome.google.com/webstore/detail/hnbpdiengicdefcjecjbnjnoifekhgdo -->                                    <rect id="backgroundrect" width="100%" height="100%" x="0" y="0" fill="#FFFFFF" stroke="none" class="" style=""/>                                <g class="currentLayer" style=""><title>Layer 1</title><path fill="none" fill-opacity="1" stroke="#ffffff" stroke-opacity="1" stroke-width="6" stroke-dasharray="none" stroke-linejoin="round" stroke-linecap="butt" stroke-dashoffset="" fill-rule="nonzero" opacity="1" marker-start="" marker-mid="" marker-end="" id="svg_2" d="M423.2659517439771,170.08791753828595 " style="color: rgb(0, 0, 0);" class=""/><path fill="#000000" fill-opacity="1" stroke="#222222" stroke-opacity="1" stroke-width="2" stroke-dasharray="none" stroke-linejoin="round" stroke-linecap="butt" stroke-dashoffset="" fill-rule="nonzero" opacity="1" marker-start="" marker-mid="" marker-end="" id="svg_5" d="M811.1780485124186,91.51648553185619 " style="color: rgb(0, 0, 0);"/><path fill="#ffffff" fill-opacity="1" stroke="#ffffff" stroke-opacity="1" stroke-width="2" stroke-dasharray="none" stroke-linejoin="round" stroke-linecap="butt" stroke-dashoffset="" fill-rule="nonzero" opacity="1" marker-start="" marker-mid="" marker-end="" id="svg_3" d="M531.5077139560195,115.14286057785833 " style="color: rgb(0, 0, 0);" class=""/><path fill="#ffffff" fill-opacity="1" stroke="#ffffff" stroke-opacity="1" stroke-width="2" stroke-dasharray="none" stroke-linejoin="round" stroke-linecap="butt" stroke-dashoffset="" fill-rule="nonzero" opacity="1" marker-start="" marker-mid="" marker-end="" id="svg_4" d="M818.3209059172742,84.92307869660488 " style="color: rgb(0, 0, 0);"/><rect fill="#ffffff" stroke="#242424" stroke-width="2" stroke-linejoin="round" stroke-dashoffset="" fill-rule="nonzero" id="svg_7" x="21.815141677856445" y="18.141998291015625" width="160.12574768066406" height="55.47126388549805" style="color: rgb(0, 0, 0);" class="" filter="" fill-opacity="1" stroke-opacity="1"/><path fill="#ffffff" fill-opacity="1" stroke="#242424" stroke-opacity="1" stroke-width="2" stroke-dasharray="none" stroke-linejoin="round" stroke-linecap="butt" stroke-dashoffset="" fill-rule="nonzero" opacity="1" marker-start="" marker-mid="" marker-end="" d="M82.11208844670443,19.0988997119764 L82.11208844670443,73.49450616829932 " id="svg_6" class=""/><path fill="#ffffff" fill-opacity="1" stroke="#242424" stroke-opacity="1" stroke-width="2" stroke-dasharray="none" stroke-linejoin="round" stroke-linecap="butt" stroke-dashoffset="" fill-rule="nonzero" opacity="1" marker-start="" marker-mid="" marker-end="" d="M63.101098086697164,18.76922603857207 L63.101098086697164,72.61538506927212 " class="" id="svg_13"/><path fill="#ffffff" fill-opacity="1" stroke="#242424" stroke-opacity="1" stroke-width="2" stroke-dasharray="none" stroke-linejoin="round" stroke-linecap="butt" stroke-dashoffset="" fill-rule="nonzero" opacity="1" marker-start="" marker-mid="" marker-end="" d="M42.99120611929527,18.98901564652533 L42.99120611929527,73.38462210284825 " class="" id="svg_14"/><path fill="#ffffff" fill-opacity="1" stroke="#242424" stroke-opacity="1" stroke-width="2" stroke-dasharray="none" stroke-linejoin="round" stroke-linecap="butt" stroke-dashoffset="" fill-rule="nonzero" opacity="1" marker-start="" marker-mid="" marker-end="" d="M120.6835365245642,18.659332239380205 L120.6835365245642,73.05494161043589 " class="" id="svg_15"/><path fill="#ffffff" fill-opacity="1" stroke="#242424" stroke-opacity="1" stroke-width="2" stroke-dasharray="none" stroke-linejoin="round" stroke-linecap="butt" stroke-dashoffset="" fill-rule="nonzero" opacity="1" marker-start="" marker-mid="" marker-end="" d="M160.46378421627333,18.879124926261227 L160.46378421627333,72.72527760349891 " class="" id="svg_16"/><path fill="#ffffff" fill-opacity="1" stroke="#242424" stroke-opacity="1" stroke-width="2" stroke-dasharray="none" stroke-linejoin="round" stroke-linecap="butt" stroke-dashoffset="" fill-rule="nonzero" opacity="1" marker-start="" marker-mid="" marker-end="" d="M140.02417841578392,18.21977731612094 L140.02417841578392,72.6153837724438 " class="" id="svg_11"/><path fill="#ffffff" fill-opacity="1" stroke="#242424" stroke-opacity="1" stroke-width="2" stroke-dasharray="none" stroke-linejoin="round" stroke-linecap="butt" stroke-dashoffset="" fill-rule="nonzero" opacity="1" marker-start="" marker-mid="" marker-end="" d="M101.23296169945996,18.439534396199065 L101.23296169945996,72.83514085252193 " class="" id="svg_12"/><path fill="#ffffff" fill-opacity="1" stroke="#242424" stroke-opacity="1" stroke-width="2" stroke-dasharray="none" stroke-linejoin="round" stroke-linecap="butt" stroke-dashoffset="" fill-rule="nonzero" opacity="1" marker-start="" marker-mid="" marker-end="" d="M45.362627029418945,24.329649567604065 C45.362627029418945,22.672191004068168 46.70516846588305,21.329649567604065 48.362627029418945,21.329649567604065 C50.02008559295484,21.329649567604065 51.362627029418945,22.672191004068168 51.362627029418945,24.329649567604065 C51.362627029418945,25.987108131139962 50.02008559295484,27.329649567604065 48.362627029418945,27.329649567604065 C46.70516846588305,27.329649567604065 45.362627029418945,25.987108131139962 45.362627029418945,24.329649567604065 z" class="" id="svg_26"/><path fill="#ffffff" fill-opacity="1" stroke="#242424" stroke-opacity="1" stroke-width="2" stroke-dasharray="none" stroke-linejoin="round" stroke-linecap="butt" stroke-dashoffset="" fill-rule="nonzero" opacity="1" marker-start="" marker-mid="" marker-end="" d="M45.912077605724335,67.73624289035797 C45.912077605724335,66.07878432682207 47.25461904218844,64.73624289035797 48.912077605724335,64.73624289035797 C50.56953616926023,64.73624289035797 51.912077605724335,66.07878432682207 51.912077605724335,67.73624289035797 C51.912077605724335,69.39370145389387 50.56953616926023,70.73624289035797 48.912077605724335,70.73624289035797 C47.25461904218844,70.73624289035797 45.912077605724335,69.39370145389387 45.912077605724335,67.73624289035797 z" class="" id="svg_9"/><path fill="#ffffff" fill-opacity="1" stroke="#242424" stroke-opacity="1" stroke-width="2" stroke-dasharray="none" stroke-linejoin="round" stroke-linecap="butt" stroke-dashoffset="" fill-rule="nonzero" opacity="1" marker-start="" marker-mid="" marker-end="" d="M54.3736127614975,24.549437165260315 C54.3736127614975,22.891978601724475 55.7161541979616,21.549437165260315 57.3736127614975,21.549437165260315 C59.031071325033395,21.549437165260315 60.3736127614975,22.891978601724475 60.3736127614975,24.549437165260315 C60.3736127614975,26.206895728796212 59.031071325033395,27.549437165260315 57.3736127614975,27.549437165260315 C55.7161541979616,27.549437165260315 54.3736127614975,26.206895728796212 54.3736127614975,24.549437165260315 z" class="" id="svg_17"/><path fill="#ffffff" fill-opacity="1" stroke="#242424" stroke-opacity="1" stroke-width="2" stroke-dasharray="none" stroke-linejoin="round" stroke-linecap="butt" stroke-dashoffset="" fill-rule="nonzero" opacity="1" marker-start="" marker-mid="" marker-end="" d="M65.58240383863449,24.76921719312668 C65.58240383863449,23.111758629590838 66.9249452750986,21.76921719312668 68.58240383863449,21.76921719312668 C70.23986240217039,21.76921719312668 71.58240383863449,23.111758629590838 71.58240383863449,24.76921719312668 C71.58240383863449,26.426675756662576 70.23986240217039,27.76921719312668 68.58240383863449,27.76921719312668 C66.9249452750986,27.76921719312668 65.58240383863449,26.426675756662576 65.58240383863449,24.76921719312668 z" class="" id="svg_18"/><path fill="#ffffff" fill-opacity="1" stroke="#242424" stroke-opacity="1" stroke-width="2" stroke-dasharray="none" stroke-linejoin="round" stroke-linecap="butt" stroke-dashoffset="" fill-rule="nonzero" opacity="1" marker-start="" marker-mid="" marker-end="" d="M74.04393994808197,24.43955421447754 C74.04393994808197,22.7820956509417 75.38648138454607,21.43955421447754 77.04393994808197,21.43955421447754 C78.70139851161787,21.43955421447754 80.04393994808197,22.7820956509417 80.04393994808197,24.43955421447754 C80.04393994808197,26.097012778013436 78.70139851161787,27.43955421447754 77.04393994808197,27.43955421447754 C75.38648138454607,27.43955421447754 74.04393994808197,26.097012778013436 74.04393994808197,24.43955421447754 z" class="" id="svg_19"/><path fill="#ffffff" fill-opacity="1" stroke="#242424" stroke-opacity="1" stroke-width="2" stroke-dasharray="none" stroke-linejoin="round" stroke-linecap="butt" stroke-dashoffset="" fill-rule="nonzero" opacity="1" marker-start="" marker-mid="" marker-end="" d="M84.70327186584473,24.65934056043625 C84.70327186584473,23.00188199690041 86.04581330230883,21.65934056043625 87.70327186584473,21.65934056043625 C89.36073042938062,21.65934056043625 90.70327186584473,23.00188199690041 90.70327186584473,24.65934056043625 C90.70327186584473,26.316799123972146 89.36073042938062,27.65934056043625 87.70327186584473,27.65934056043625 C86.04581330230883,27.65934056043625 84.70327186584473,26.316799123972146 84.70327186584473,24.65934056043625 z" class="" id="svg_20"/><path fill="#ffffff" fill-opacity="1" stroke="#242424" stroke-opacity="1" stroke-width="2" stroke-dasharray="none" stroke-linejoin="round" stroke-linecap="butt" stroke-dashoffset="" fill-rule="nonzero" opacity="1" marker-start="" marker-mid="" marker-end="" d="M93.1648079752922,24.87911093235016 C93.1648079752922,23.22165236881432 94.50734941175631,21.87911093235016 96.1648079752922,21.87911093235016 C97.8222665388281,21.87911093235016 99.1648079752922,23.22165236881432 99.1648079752922,24.87911093235016 C99.1648079752922,26.536569495886056 97.8222665388281,27.87911093235016 96.1648079752922,27.87911093235016 C94.50734941175631,27.87911093235016 93.1648079752922,26.536569495886056 93.1648079752922,24.87911093235016 z" class="" id="svg_21"/><path fill="#ffffff" fill-opacity="1" stroke="#242424" stroke-opacity="1" stroke-width="2" stroke-dasharray="none" stroke-linejoin="round" stroke-linecap="butt" stroke-dashoffset="" fill-rule="nonzero" opacity="1" marker-start="" marker-mid="" marker-end="" d="M103.8241399526596,24.549417436122894 C103.8241399526596,22.891958872587054 105.16668138912371,21.549417436122894 106.8241399526596,21.549417436122894 C108.4815985161955,21.549417436122894 109.8241399526596,22.891958872587054 109.8241399526596,24.549417436122894 C109.8241399526596,26.20687599965879 108.4815985161955,27.549417436122894 106.8241399526596,27.549417436122894 C105.16668138912371,27.549417436122894 103.8241399526596,26.20687599965879 103.8241399526596,24.549417436122894 z" class="" id="svg_22"/><path fill="#ffffff" fill-opacity="1" stroke="#242424" stroke-opacity="1" stroke-width="2" stroke-dasharray="none" stroke-linejoin="round" stroke-linecap="butt" stroke-dashoffset="" fill-rule="nonzero" opacity="1" marker-start="" marker-mid="" marker-end="" d="M112.28565156459808,24.76920384168625 C112.28565156459808,23.11174527815041 113.62819300106219,21.76920384168625 115.28565156459808,21.76920384168625 C116.94311012813398,21.76920384168625 118.28565156459808,23.11174527815041 118.28565156459808,24.76920384168625 C118.28565156459808,26.426662405222146 116.94311012813398,27.76920384168625 115.28565156459808,27.76920384168625 C113.62819300106219,27.76920384168625 112.28565156459808,26.426662405222146 112.28565156459808,24.76920384168625 z" class="" id="svg_23"/><path fill="#ffffff" fill-opacity="1" stroke="#242424" stroke-opacity="1" stroke-width="2" stroke-dasharray="none" stroke-linejoin="round" stroke-linecap="butt" stroke-dashoffset="" fill-rule="nonzero" opacity="1" marker-start="" marker-mid="" marker-end="" d="M122.94497048854828,24.439523696899414 C122.94497048854828,22.782065133363574 124.28751192501238,21.439523696899414 125.94497048854828,21.439523696899414 C127.60242905208418,21.439523696899414 128.94497048854828,22.782065133363574 128.94497048854828,24.439523696899414 C128.94497048854828,26.09698226043531 127.60242905208418,27.439523696899414 125.94497048854828,27.439523696899414 C124.28751192501238,27.439523696899414 122.94497048854828,26.09698226043531 122.94497048854828,24.439523696899414 z" class="" id="svg_25"/><path fill="#ffffff" fill-opacity="1" stroke="#242424" stroke-opacity="1" stroke-width="2" stroke-dasharray="none" stroke-linejoin="round" stroke-linecap="butt" stroke-dashoffset="" fill-rule="nonzero" opacity="1" marker-start="" marker-mid="" marker-end="" d="M131.40650081634521,24.659279465675354 C131.40650081634521,23.001820902139514 132.74904225280932,21.659279465675354 134.40650081634521,21.659279465675354 C136.0639593798811,21.659279465675354 137.40650081634521,23.001820902139514 137.40650081634521,24.659279465675354 C137.40650081634521,26.31673802921125 136.0639593798811,27.659279465675354 134.40650081634521,27.659279465675354 C132.74904225280932,27.659279465675354 131.40650081634521,26.31673802921125 131.40650081634521,24.659279465675354 z" class="" id="svg_28"/><path fill="#ffffff" fill-opacity="1" stroke="#242424" stroke-opacity="1" stroke-width="2" stroke-dasharray="none" stroke-linejoin="round" stroke-linecap="butt" stroke-dashoffset="" fill-rule="nonzero" opacity="1" marker-start="" marker-mid="" marker-end="" d="M142.06582641601562,24.329599380493164 C142.06582641601562,22.672140816957324 143.40836785247973,21.329599380493164 145.06582641601562,21.329599380493164 C146.72328497955152,21.329599380493164 148.06582641601562,22.672140816957324 148.06582641601562,24.329599380493164 C148.06582641601562,25.98705794402906 146.72328497955152,27.329599380493164 145.06582641601562,27.329599380493164 C143.40836785247973,27.329599380493164 142.06582641601562,25.98705794402906 142.06582641601562,24.329599380493164 z" class="" id="svg_29"/><path fill="#ffffff" fill-opacity="1" stroke="#242424" stroke-opacity="1" stroke-width="2" stroke-dasharray="none" stroke-linejoin="round" stroke-linecap="butt" stroke-dashoffset="" fill-rule="nonzero" opacity="1" marker-start="" marker-mid="" marker-end="" d="M151.0768073797226,24.549356400966644 C151.0768073797226,22.891897837430804 152.4193488161867,21.549356400966644 154.0768073797226,21.549356400966644 C155.7342659432585,21.549356400966644 157.0768073797226,22.891897837430804 157.0768073797226,24.549356400966644 C157.0768073797226,26.20681496450254 155.7342659432585,27.549356400966644 154.0768073797226,27.549356400966644 C152.4193488161867,27.549356400966644 151.0768073797226,26.20681496450254 151.0768073797226,24.549356400966644 z" class="" id="svg_30"/><path fill="#ffffff" fill-opacity="1" stroke="#242424" stroke-opacity="1" stroke-width="2" stroke-dasharray="none" stroke-linejoin="round" stroke-linecap="butt" stroke-dashoffset="" fill-rule="nonzero" opacity="1" marker-start="" marker-mid="" marker-end="" d="M163.93394130468369,24.76911288499832 C163.93394130468369,23.11165432146248 165.2764827411478,21.76911288499832 166.93394130468369,21.76911288499832 C168.59139986821958,21.76911288499832 169.93394130468369,23.11165432146248 169.93394130468369,24.76911288499832 C169.93394130468369,26.42657144853422 168.59139986821958,27.76911288499832 166.93394130468369,27.76911288499832 C165.2764827411478,27.76911288499832 163.93394130468369,26.42657144853422 163.93394130468369,24.76911288499832 z" class="" id="svg_31"/><path fill="#ffffff" fill-opacity="1" stroke="#242424" stroke-opacity="1" stroke-width="2" stroke-dasharray="none" stroke-linejoin="round" stroke-linecap="butt" stroke-dashoffset="" fill-rule="nonzero" opacity="1" marker-start="" marker-mid="" marker-end="" d="M34.37361592054367,24.879100143909454 C34.37361592054367,23.221641580373557 35.71615735700777,21.879100143909454 37.37361592054367,21.879100143909454 C39.03107448407957,21.879100143909454 40.37361592054367,23.221641580373557 40.37361592054367,24.879100143909454 C40.37361592054367,26.53655870744535 39.03107448407957,27.879100143909454 37.37361592054367,27.879100143909454 C35.71615735700777,27.879100143909454 34.37361592054367,26.53655870744535 34.37361592054367,24.879100143909454 z" class="" id="svg_45"/><path fill="#ffffff" fill-opacity="1" stroke="#242424" stroke-opacity="1" stroke-width="2" stroke-dasharray="none" stroke-linejoin="round" stroke-linecap="butt" stroke-dashoffset="" fill-rule="nonzero" opacity="1" marker-start="" marker-mid="" marker-end="" d="M25.802186965942383,25.098880112171173 C25.802186965942383,23.441421548635276 27.144728402406486,22.098880112171173 28.802186965942383,22.098880112171173 C30.45964552947828,22.098880112171173 31.802186965942383,23.441421548635276 31.802186965942383,25.098880112171173 C31.802186965942383,26.75633867570707 30.45964552947828,28.098880112171173 28.802186965942383,28.098880112171173 C27.144728402406486,28.098880112171173 25.802186965942383,26.75633867570707 25.802186965942383,25.098880112171173 z" class="" id="svg_46"/><path fill="#ffffff" fill-opacity="1" stroke="#242424" stroke-opacity="1" stroke-width="2" stroke-dasharray="none" stroke-linejoin="round" stroke-linecap="butt" stroke-dashoffset="" fill-rule="nonzero" opacity="1" marker-start="" marker-mid="" marker-end="" d="M54.3736127614975,67.40657991170883 C54.3736127614975,65.74912134817299 55.7161541979616,64.40657991170883 57.3736127614975,64.40657991170883 C59.031071325033395,64.40657991170883 60.3736127614975,65.74912134817299 60.3736127614975,67.40657991170883 C60.3736127614975,69.06403847524473 59.031071325033395,70.40657991170883 57.3736127614975,70.40657991170883 C55.7161541979616,70.40657991170883 54.3736127614975,69.06403847524473 54.3736127614975,67.40657991170883 z" class="" id="svg_27"/><path fill="#ffffff" fill-opacity="1" stroke="#242424" stroke-opacity="1" stroke-width="2" stroke-dasharray="none" stroke-linejoin="round" stroke-linecap="butt" stroke-dashoffset="" fill-rule="nonzero" opacity="1" marker-start="" marker-mid="" marker-end="" d="M65.58240383863449,67.6263599395752 C65.58240383863449,65.96890137603936 66.9249452750986,64.6263599395752 68.58240383863449,64.6263599395752 C70.23986240217039,64.6263599395752 71.58240383863449,65.96890137603936 71.58240383863449,67.6263599395752 C71.58240383863449,69.28381850311109 70.23986240217039,70.6263599395752 68.58240383863449,70.6263599395752 C66.9249452750986,70.6263599395752 65.58240383863449,69.28381850311109 65.58240383863449,67.6263599395752 z" class="" id="svg_32"/><path fill="#ffffff" fill-opacity="1" stroke="#242424" stroke-opacity="1" stroke-width="2" stroke-dasharray="none" stroke-linejoin="round" stroke-linecap="butt" stroke-dashoffset="" fill-rule="nonzero" opacity="1" marker-start="" marker-mid="" marker-end="" d="M74.04393994808197,67.29669696092606 C74.04393994808197,65.63923839739022 75.38648138454607,64.29669696092606 77.04393994808197,64.29669696092606 C78.70139851161787,64.29669696092606 80.04393994808197,65.63923839739022 80.04393994808197,67.29669696092606 C80.04393994808197,68.95415552446195 78.70139851161787,70.29669696092606 77.04393994808197,70.29669696092606 C75.38648138454607,70.29669696092606 74.04393994808197,68.95415552446195 74.04393994808197,67.29669696092606 z" class="" id="svg_33"/><path fill="#ffffff" fill-opacity="1" stroke="#242424" stroke-opacity="1" stroke-width="2" stroke-dasharray="none" stroke-linejoin="round" stroke-linecap="butt" stroke-dashoffset="" fill-rule="nonzero" opacity="1" marker-start="" marker-mid="" marker-end="" d="M84.70327186584473,67.51648330688477 C84.70327186584473,65.85902474334893 86.04581330230883,64.51648330688477 87.70327186584473,64.51648330688477 C89.36073042938062,64.51648330688477 90.70327186584473,65.85902474334893 90.70327186584473,67.51648330688477 C90.70327186584473,69.17394187042066 89.36073042938062,70.51648330688477 87.70327186584473,70.51648330688477 C86.04581330230883,70.51648330688477 84.70327186584473,69.17394187042066 84.70327186584473,67.51648330688477 z" class="" id="svg_34"/><path fill="#ffffff" fill-opacity="1" stroke="#242424" stroke-opacity="1" stroke-width="2" stroke-dasharray="none" stroke-linejoin="round" stroke-linecap="butt" stroke-dashoffset="" fill-rule="nonzero" opacity="1" marker-start="" marker-mid="" marker-end="" d="M93.1648079752922,67.73625367879868 C93.1648079752922,66.07879511526284 94.50734941175631,64.73625367879868 96.1648079752922,64.73625367879868 C97.8222665388281,64.73625367879868 99.1648079752922,66.07879511526284 99.1648079752922,67.73625367879868 C99.1648079752922,69.39371224233457 97.8222665388281,70.73625367879868 96.1648079752922,70.73625367879868 C94.50734941175631,70.73625367879868 93.1648079752922,69.39371224233457 93.1648079752922,67.73625367879868 z" class="" id="svg_35"/><path fill="#ffffff" fill-opacity="1" stroke="#242424" stroke-opacity="1" stroke-width="2" stroke-dasharray="none" stroke-linejoin="round" stroke-linecap="butt" stroke-dashoffset="" fill-rule="nonzero" opacity="1" marker-start="" marker-mid="" marker-end="" d="M103.8241399526596,67.40656018257141 C103.8241399526596,65.74910161903557 105.16668138912371,64.40656018257141 106.8241399526596,64.40656018257141 C108.4815985161955,64.40656018257141 109.8241399526596,65.74910161903557 109.8241399526596,67.40656018257141 C109.8241399526596,69.06401874610731 108.4815985161955,70.40656018257141 106.8241399526596,70.40656018257141 C105.16668138912371,70.40656018257141 103.8241399526596,69.06401874610731 103.8241399526596,67.40656018257141 z" class="" id="svg_36"/><path fill="#ffffff" fill-opacity="1" stroke="#242424" stroke-opacity="1" stroke-width="2" stroke-dasharray="none" stroke-linejoin="round" stroke-linecap="butt" stroke-dashoffset="" fill-rule="nonzero" opacity="1" marker-start="" marker-mid="" marker-end="" d="M112.28565156459808,67.62634658813477 C112.28565156459808,65.96888802459893 113.62819300106219,64.62634658813477 115.28565156459808,64.62634658813477 C116.94311012813398,64.62634658813477 118.28565156459808,65.96888802459893 118.28565156459808,67.62634658813477 C118.28565156459808,69.28380515167066 116.94311012813398,70.62634658813477 115.28565156459808,70.62634658813477 C113.62819300106219,70.62634658813477 112.28565156459808,69.28380515167066 112.28565156459808,67.62634658813477 z" class="" id="svg_37"/><path fill="#ffffff" fill-opacity="1" stroke="#242424" stroke-opacity="1" stroke-width="2" stroke-dasharray="none" stroke-linejoin="round" stroke-linecap="butt" stroke-dashoffset="" fill-rule="nonzero" opacity="1" marker-start="" marker-mid="" marker-end="" d="M122.94497048854828,67.29666644334793 C122.94497048854828,65.63920787981209 124.28751192501238,64.29666644334793 125.94497048854828,64.29666644334793 C127.60242905208418,64.29666644334793 128.94497048854828,65.63920787981209 128.94497048854828,67.29666644334793 C128.94497048854828,68.95412500688383 127.60242905208418,70.29666644334793 125.94497048854828,70.29666644334793 C124.28751192501238,70.29666644334793 122.94497048854828,68.95412500688383 122.94497048854828,67.29666644334793 z" class="" id="svg_38"/><path fill="#ffffff" fill-opacity="1" stroke="#242424" stroke-opacity="1" stroke-width="2" stroke-dasharray="none" stroke-linejoin="round" stroke-linecap="butt" stroke-dashoffset="" fill-rule="nonzero" opacity="1" marker-start="" marker-mid="" marker-end="" d="M131.40650081634521,67.51642221212387 C131.40650081634521,65.85896364858803 132.74904225280932,64.51642221212387 134.40650081634521,64.51642221212387 C136.0639593798811,64.51642221212387 137.40650081634521,65.85896364858803 137.40650081634521,67.51642221212387 C137.40650081634521,69.17388077565977 136.0639593798811,70.51642221212387 134.40650081634521,70.51642221212387 C132.74904225280932,70.51642221212387 131.40650081634521,69.17388077565977 131.40650081634521,67.51642221212387 z" class="" id="svg_39"/><path fill="#ffffff" fill-opacity="1" stroke="#242424" stroke-opacity="1" stroke-width="2" stroke-dasharray="none" stroke-linejoin="round" stroke-linecap="butt" stroke-dashoffset="" fill-rule="nonzero" opacity="1" marker-start="" marker-mid="" marker-end="" d="M142.61527699232101,67.18674212694168 C142.61527699232101,65.52928356340584 143.95781842878512,64.18674212694168 145.61527699232101,64.18674212694168 C147.2727355558569,64.18674212694168 148.61527699232101,65.52928356340584 148.61527699232101,67.18674212694168 C148.61527699232101,68.84420069047758 147.2727355558569,70.18674212694168 145.61527699232101,70.18674212694168 C143.95781842878512,70.18674212694168 142.61527699232101,68.84420069047758 142.61527699232101,67.18674212694168 z" class="" id="svg_40"/><path fill="#ffffff" fill-opacity="1" stroke="#242424" stroke-opacity="1" stroke-width="2" stroke-dasharray="none" stroke-linejoin="round" stroke-linecap="butt" stroke-dashoffset="" fill-rule="nonzero" opacity="1" marker-start="" marker-mid="" marker-end="" d="M151.0768073797226,67.40649914741516 C151.0768073797226,65.74904058387932 152.4193488161867,64.40649914741516 154.0768073797226,64.40649914741516 C155.7342659432585,64.40649914741516 157.0768073797226,65.74904058387932 157.0768073797226,67.40649914741516 C157.0768073797226,69.06395771095106 155.7342659432585,70.40649914741516 154.0768073797226,70.40649914741516 C152.4193488161867,70.40649914741516 151.0768073797226,69.06395771095106 151.0768073797226,67.40649914741516 z" class="" id="svg_41"/><path fill="#ffffff" fill-opacity="1" stroke="#242424" stroke-opacity="1" stroke-width="2" stroke-dasharray="none" stroke-linejoin="round" stroke-linecap="butt" stroke-dashoffset="" fill-rule="nonzero" opacity="1" marker-start="" marker-mid="" marker-end="" d="M164.48339182138443,67.62625563144684 C164.48339182138443,65.968797067911 165.82593325784853,64.62625563144684 167.48339182138443,64.62625563144684 C169.14085038492033,64.62625563144684 170.48339182138443,65.968797067911 170.48339182138443,67.62625563144684 C170.48339182138443,69.28371419498274 169.14085038492033,70.62625563144684 167.48339182138443,70.62625563144684 C165.82593325784853,70.62625563144684 164.48339182138443,69.28371419498274 164.48339182138443,67.62625563144684 z" class="" id="svg_42"/><path fill="#ffffff" fill-opacity="1" stroke="#242424" stroke-opacity="1" stroke-width="2" stroke-dasharray="none" stroke-linejoin="round" stroke-linecap="butt" stroke-dashoffset="" fill-rule="nonzero" opacity="1" marker-start="" marker-mid="" marker-end="" d="M172.94491016864777,24.439443588256836 C172.94491016864777,22.781985024720996 174.28745160511187,21.439443588256836 175.94491016864777,21.439443588256836 C177.60236873218366,21.439443588256836 178.94491016864777,22.781985024720996 178.94491016864777,24.439443588256836 C178.94491016864777,26.096902151792733 177.60236873218366,27.439443588256836 175.94491016864777,27.439443588256836 C174.28745160511187,27.439443588256836 172.94491016864777,26.096902151792733 172.94491016864777,24.439443588256836 z" class="" id="svg_43"/><path fill="#ffffff" fill-opacity="1" stroke="#242424" stroke-opacity="1" stroke-width="2" stroke-dasharray="none" stroke-linejoin="round" stroke-linecap="butt" stroke-dashoffset="" fill-rule="nonzero" opacity="1" marker-start="" marker-mid="" marker-end="" d="M173.4943608045578,67.29658633470535 C173.4943608045578,65.63912777116951 174.8369022410219,64.29658633470535 176.4943608045578,64.29658633470535 C178.1518193680937,64.29658633470535 179.4943608045578,65.63912777116951 179.4943608045578,67.29658633470535 C179.4943608045578,68.95404489824125 178.1518193680937,70.29658633470535 176.4943608045578,70.29658633470535 C174.8369022410219,70.29658633470535 173.4943608045578,68.95404489824125 173.4943608045578,67.29658633470535 z" class="" id="svg_47"/><path fill="#ffffff" fill-opacity="1" stroke="#242424" stroke-opacity="1" stroke-width="2" stroke-dasharray="none" stroke-linejoin="round" stroke-linecap="butt" stroke-dashoffset="" fill-rule="nonzero" opacity="1" marker-start="" marker-mid="" marker-end="" d="M34.37361592054367,67.73624289035797 C34.37361592054367,66.07878432682207 35.71615735700777,64.73624289035797 37.37361592054367,64.73624289035797 C39.03107448407957,64.73624289035797 40.37361592054367,66.07878432682207 40.37361592054367,67.73624289035797 C40.37361592054367,69.39370145389387 39.03107448407957,70.73624289035797 37.37361592054367,70.73624289035797 C35.71615735700777,70.73624289035797 34.37361592054367,69.39370145389387 34.37361592054367,67.73624289035797 z" class="" id="svg_24"/><path fill="#ffffff" fill-opacity="1" stroke="#242424" stroke-opacity="1" stroke-width="2" stroke-dasharray="none" stroke-linejoin="round" stroke-linecap="butt" stroke-dashoffset="" fill-rule="nonzero" opacity="1" marker-start="" marker-mid="" marker-end="" d="M25.802186965942383,67.4065722823143 C25.802186965942383,65.7491137187784 27.144728402406486,64.4065722823143 28.802186965942383,64.4065722823143 C30.45964552947828,64.4065722823143 31.802186965942383,65.7491137187784 31.802186965942383,67.4065722823143 C31.802186965942383,69.0640308458502 30.45964552947828,70.4065722823143 28.802186965942383,70.4065722823143 C27.144728402406486,70.4065722823143 25.802186965942383,69.0640308458502 25.802186965942383,67.4065722823143 z" class="" id="svg_8"/><path fill="#dadada" fill-opacity="1" stroke="#222222" stroke-opacity="1" stroke-width="2" stroke-dasharray="none" stroke-linejoin="round" stroke-linecap="butt" stroke-dashoffset="" fill-rule="nonzero" opacity="1" marker-start="" marker-mid="" marker-end="" d="M17.917946000612176,39.79486594296941 L183.30256745149933,39.79486594296941 " id="svg_48" class=""/><rect fill="#ffffff" stroke="#242424" stroke-width="2" stroke-linejoin="round" stroke-dashoffset="" fill-rule="nonzero" id="svg_54" x="17.37358283996582" y="32.89007568359375" width="165.8681182861328" height="27.791208267211914" style="color: rgb(74, 144, 214);" class="" rx="3" ry="3" fill-opacity="1"/><line fill="#ffffff" fill-opacity="1" stroke="#242424" stroke-opacity="1" stroke-width="1" stroke-dasharray="none" stroke-linejoin="round" stroke-linecap="butt" stroke-dashoffset="" fill-rule="nonzero" opacity="1" marker-start="" marker-mid="" marker-end="" id="svg_51" x1="33.85200500488281" y1="34.4835205078125" x2="33.85200500488281" y2="34.4835205078125" style="color: rgb(74, 144, 214);" class=""/><line fill="#ffffff" fill-opacity="1" stroke="#242424" stroke-opacity="1" stroke-width="1" stroke-dasharray="none" stroke-linejoin="round" stroke-linecap="butt" stroke-dashoffset="" fill-rule="nonzero" opacity="1" marker-start="" marker-mid="" marker-end="" id="svg_66" x1="112.42344665527344" y1="34.666656494140625" x2="112.42344665527344" y2="34.666656494140625" style="color: rgb(74, 144, 214);" class=""/><path fill="#ffffff" fill-opacity="1" stroke="#242424" stroke-opacity="1" stroke-width="2" stroke-dasharray="5,5" stroke-linejoin="round" stroke-linecap="butt" stroke-dashoffset="" fill-rule="nonzero" opacity="1" marker-start="" marker-mid="" marker-end="" d="M179.63956362133735,37.41391342107528 L23.046151284118622,37.41391342107528 " id="svg_70" class=""/></g><defs><filter id="f097" inkscape:label="Solarize" inkscape:menu="Color" inkscape:menu-tooltip="Classical photographic solarization effect" y="0" x="0" height="1" width="1" color-interpolation-filters="sRGB">
            <feColorMatrix type="hueRotate" values="0" result="fbSourceGraphic"/>
            <feColorMatrix in="fbSourceGraphic" values="-1 0 0 0 1 0 -1 0 0 1 0 0 -1 0 1 0 0 0 1 0 " result="result91"/>
            <feBlend mode="darken" in="fbSourceGraphic" in2="result91" result="result92"/>
            <feBlend mode="screen" in2="result92"/>
            <feComposite operator="in" in2="SourceGraphic"/>
        </filter></defs></svg>