<svg xmlns="http://www.w3.org/2000/svg" width="631.9166647626294" height="500.7499972681205" style=""><rect id="backgroundrect" width="100%" height="100%" x="0" y="0" fill="none" stroke="none" class="" style=""/>

 <g style="" class="currentLayer">
  <title>Layer 1</title>
  
  
  
  
  
  
  
  
  
  
  
  
  
  <line transform="rotate(37.069698333740234 164.75036621093741,241.79165649414068) " stroke="#4b96e7" id="svg_27" y2="251.74049401283264" x2="151.5307058095932" y1="231.84263634681702" x1="177.97061669826508" stroke-width="10" fill="none" class=""/>
  
  <line transform="rotate(55.126766204833984 221.87422180175784,328.9192199707031) " stroke="#4b96e7" id="svg_30" y2="334.78312706947327" x2="224.12639367580414" y1="323.0552523136139" x1="219.62199914455414" stroke-width="10" fill="none" class=""/><line transform="rotate(47.46422576904297 254.91630554199213,280.672576904297) " stroke="#4b96e7" y2="289.5292818546295" x2="257.1684774160385" y1="271.81593346595764" x1="252.6640828847885" stroke-width="10" fill="none" class="" id="svg_11"/><line transform="rotate(48.827579498291016 238.08143615722656,305.52072143554693) " stroke="#4b96e7" y2="315.771347284317" x2="240.63847863674164" y1="295.2699739933014" x1="235.52434289455414" stroke-width="10" fill="none" class="" id="svg_10"/>
  
  
  <line transform="rotate(104.05500030517578 443.7273864746093,291.3745422363281) " stroke="#4b96e7" y2="269.8776459728907" x2="455.5300087425417" y1="312.8714001304653" x1="431.92484411717993" stroke-width="10" fill="none" class="" id="svg_15"/><line transform="rotate(104.05500030517578 396.2663879394531,247.24914550781244) " stroke="#4b96e7" y2="227.3684847354889" x2="407.1816610097885" y1="267.12980675697327" x1="385.351216673851" stroke-width="10" fill="none" class="" id="svg_1"/>
  <line transform="rotate(83.4176025390625 403.0412292480468,164.73912048339844) " stroke="#4b96e7" id="svg_34" y2="152.10033690929413" x2="400.2917277812958" y1="177.377894282341" x1="405.790812253952" stroke-width="10" fill="none" class=""/><line transform="rotate(82.17741394042969 477.5579528808594,139.8750762939453) " stroke="#4b96e7" y2="129.24053117664823" x2="475.8640638372974" y1="150.509611124667" x1="479.25194225526616" stroke-width="10" fill="none" class="" id="svg_4"/>
  
  
  
 <path fill="none" fill-opacity="1" stroke="#4b96e7" stroke-opacity="1" stroke-width="13" stroke-dasharray="none" stroke-linejoin="miter" stroke-linecap="butt" stroke-dashoffset="" fill-rule="nonzero" opacity="1" marker-start="" marker-mid="" marker-end="" d="M273.5000000155492,191.93750736160564 C273.5000000155492,158.1322582817907 300.8822517701993,130.7500065271406 334.6875008500142,130.7500065271406 C368.49274992982913,130.7500065271406 395.87500168447923,158.1322582817907 395.87500168447923,191.93750736160564 C395.87500168447923,225.74275644142057 368.49274992982913,253.12500819607067 334.6875008500142,253.12500819607067 C300.8822517701993,253.12500819607067 273.5000000155492,225.74275644142057 273.5000000155492,191.93750736160564 z" id="svg_8" class=""/><path fill="none" fill-opacity="1" stroke="#4b96e7" stroke-opacity="1" stroke-width="9" stroke-dasharray="none" stroke-linejoin="miter" stroke-linecap="butt" stroke-dashoffset="" fill-rule="nonzero" opacity="1" marker-start="" marker-mid="" marker-end="" d="M245.37499555159502,237.85416674581893 C245.37499555159502,216.38777612426583 262.29661111921234,198.99999972080786 283.18749453602385,198.99999972080786 C304.0783779528353,198.99999972080786 320.9999935204526,216.38777612426583 320.9999935204526,237.85416674581893 C320.9999935204526,259.320557367372 304.0783779528353,276.70833377083 283.18749453602385,276.70833377083 C262.29661111921234,276.70833377083 245.37499555159502,259.320557367372 245.37499555159502,237.85416674581893 z" id="svg_17" class=""/><path fill="none" fill-opacity="1" stroke="#4b96e7" stroke-opacity="1" stroke-width="9" stroke-dasharray="none" stroke-linejoin="miter" stroke-linecap="butt" stroke-dashoffset="" fill-rule="nonzero" opacity="1" marker-start="" marker-mid="" marker-end="" d="M50.79167482599547,243.06565478840128 C50.79167482599547,215.95755552060143 72.16055992016459,193.99999511368367 98.54189954259553,193.99999511368367 C124.92323916502642,193.99999511368367 146.29212425919548,215.95755552060143 146.29212425919548,243.06565478840128 C146.29212425919548,270.173754056201 124.92323916502642,292.1313144631188 98.54189954259553,292.1313144631188 C72.16055992016459,292.1313144631188 50.79167482599547,270.173754056201 50.79167482599547,243.06565478840128 z" class="" id="svg_5"/><path fill="none" fill-opacity="1" stroke="#4b96e7" stroke-opacity="1" stroke-width="9" stroke-dasharray="none" stroke-linejoin="miter" stroke-linecap="butt" stroke-dashoffset="" fill-rule="nonzero" opacity="1" marker-start="" marker-mid="" marker-end="" d="M486.41668253691444,123.82521572152046 C486.41668253691444,102.28273697269503 504.20368632920633,84.83332918614656 526.1629502703074,84.83332918614656 C548.1222142114084,84.83332918614656 565.9092180037004,102.28273697269503 565.9092180037004,123.82521572152046 C565.9092180037004,145.36769447034578 548.1222142114084,162.81710225689437 526.1629502703074,162.81710225689437 C504.20368632920633,162.81710225689437 486.41668253691444,145.36769447034578 486.41668253691444,123.82521572152046 z" class="" id="svg_9"/><path fill="none" fill-opacity="1" stroke="#4b96e7" stroke-opacity="1" stroke-width="12" stroke-dasharray="none" stroke-linejoin="miter" stroke-linecap="butt" stroke-dashoffset="" fill-rule="nonzero" opacity="1" marker-start="" marker-mid="" marker-end="" d="M441.62500749018045,355.7739848151979 C441.62500749018045,317.7312618445575 471.6134831777605,286.9166562383389 508.63629266860005,286.9166562383389 C545.6591021594395,286.9166562383389 575.6475778470195,317.7312618445575 575.6475778470195,355.7739848151979 C575.6475778470195,393.81670778583816 545.6591021594395,424.6313133920569 508.63629266860005,424.6313133920569 C471.6134831777605,424.6313133920569 441.62500749018045,393.81670778583816 441.62500749018045,355.7739848151979 z" class="" id="svg_7"/><path fill="none" fill-opacity="1" stroke="#4b96e7" stroke-opacity="1" stroke-width="9" stroke-dasharray="none" stroke-linejoin="miter" stroke-linecap="butt" stroke-dashoffset="" fill-rule="nonzero" opacity="1" marker-start="" marker-mid="" marker-end="" d="M172.87500571476713,364.1073174605916 C172.87500571476713,347.3583341943902 185.8530068802165,333.7916577487671 201.87523054126507,333.7916577487671 C217.89745420231355,333.7916577487671 230.87545536776292,347.3583341943902 230.87545536776292,364.1073174605916 C230.87545536776292,380.85630072679294 217.89745420231355,394.4229771724161 201.87523054126507,394.4229771724161 C185.8530068802165,394.4229771724161 172.87500571476713,380.85630072679294 172.87500571476713,364.1073174605916 z" class="" id="svg_6"/><line transform="rotate(37.069698333740234 224.54844665527338,241.79641723632815) " stroke="#4b96e7" id="svg_29" y2="255.63835167884827" x2="206.16740930080414" y1="227.95451378822327" x1="242.9294637441635" stroke-width="10" fill="none" class=""/><path fill="none" fill-opacity="1" stroke="#4b96e7" stroke-opacity="1" stroke-width="10" stroke-dasharray="none" stroke-linejoin="miter" stroke-linecap="butt" stroke-dashoffset="" fill-rule="nonzero" opacity="1" marker-start="" marker-mid="" marker-end="" d="M431.0416349652753,155.8333356363907 L452.9166340960409,148.54166925946885 " id="svg_14" class=""/></g>
</svg>